<svg xmlns="http://www.w3.org/2000/svg" width="512" height="512" viewBox="0 0 512 512">
<g>
<path d="M 243.50,510.34 L 241.18,509.84 L 236.64,508.35 L 234.39,507.52 L 230.03,505.42 L 227.88,504.30 L 223.79,501.65 L 221.79,500.27 L 218.03,497.14 L 216.21,495.53 L 212.87,492.00 L 211.26,490.19 L 208.41,486.31 L 207.06,484.34 L 204.78,480.19 L 202.08,473.73 L 199.98,467.43 L 192.14,466.38 L 189.99,466.09 L 185.17,464.94 L 184.02,464.63 L 181.93,463.96 L 179.41,462.96 L 177.84,462.20 L 174.58,460.05 L 172.96,458.88 L 169.82,456.14 L 168.30,454.72 L 165.61,451.68 L 162.43,447.13 L 161.56,445.59 L 160.09,441.78 L 159.41,439.80 L 158.39,435.49 L 157.95,433.32 L 157.48,429.02 L 157.53,423.14 L 158.13,417.50 L 153.23,412.76 L 152.56,412.11 L 151.10,410.46 L 150.37,409.60 L 148.92,407.72 L 148.21,406.77 L 146.94,404.87 L 145.42,402.26 L 144.75,400.94 L 143.84,398.85 L 143.44,397.83 L 142.96,395.76 L 142.86,395.21 L 142.72,393.98 L 142.66,393.33 L 142.59,391.85 L 142.55,391.07 L 142.52,389.24 L 142.50,386.00 L 142.50,384.81 L 142.52,382.79 L 142.53,381.83 L 142.59,380.18 L 142.65,378.60 L 142.97,376.18 L 143.17,375.03 L 143.84,372.90 L 145.40,369.22 L 145.90,368.13 L 147.05,366.08 L 147.65,365.07 L 149.04,363.12 L 149.76,362.16 L 151.41,360.27 L 154.24,357.43 L 160.19,351.93 L 157.57,345.39 L 156.12,341.77 L 152.64,334.75 L 150.80,331.26 L 146.40,324.31 L 145.24,322.56 L 142.71,319.04 L 141.41,317.27 L 138.60,313.68 L 137.15,311.87 L 134.03,308.18 L 128.97,302.50 L 125.43,298.63 L 118.95,290.88 L 115.80,286.99 L 110.11,279.17 L 107.36,275.24 L 102.43,267.29 L 100.06,263.30 L 95.86,255.17 L 93.85,251.08 L 90.36,242.71 L 88.70,238.49 L 85.89,229.83 L 84.57,225.46 L 82.41,216.46 L 79.88,202.50 L 79.67,201.06 L 79.33,197.51 L 79.17,195.64 L 78.94,191.43 L 78.84,189.27 L 78.71,184.65 L 78.66,182.31 L 78.63,177.53 L 78.63,175.14 L 78.71,170.43 L 78.77,168.11 L 78.95,163.73 L 79.06,161.61 L 79.35,157.80 L 79.90,153.00 L 80.66,148.07 L 82.73,138.44 L 83.85,133.66 L 86.62,124.37 L 88.09,119.76 L 91.54,110.83 L 93.35,106.41 L 97.45,97.86 L 99.58,93.64 L 104.31,85.51 L 106.75,81.50 L 112.07,73.81 L 114.80,70.02 L 120.70,62.81 L 123.71,59.26 L 130.15,52.54 L 133.43,49.25 L 140.38,43.05 L 143.92,40.03 L 151.36,34.39 L 155.14,31.64 L 163.04,26.58 L 167.04,24.12 L 175.37,19.67 L 179.59,17.53 L 188.33,13.71 L 192.75,11.88 L 201.86,8.73 L 206.47,7.24 L 215.93,4.78 L 230.50,1.89 L 231.14,1.79 L 232.66,1.60 L 233.45,1.51 L 235.23,1.35 L 237.07,1.20 L 241.37,0.97 L 243.60,0.87 L 248.45,0.74 L 250.91,0.69 L 256.00,0.66 L 258.54,0.66 L 263.55,0.74 L 266.01,0.79 L 270.63,0.97 L 272.86,1.07 L 276.77,1.35 L 277.69,1.43 L 279.34,1.60 L 281.50,1.89 L 286.01,2.60 L 294.85,4.50 L 299.24,5.52 L 307.82,8.03 L 312.08,9.36 L 320.37,12.44 L 324.49,14.06 L 332.47,17.71 L 336.43,19.60 L 344.08,23.79 L 347.86,25.95 L 355.15,30.66 L 358.75,33.07 L 365.66,38.27 L 369.06,40.93 L 375.56,46.60 L 378.76,49.49 L 384.82,55.61 L 387.79,58.72 L 393.39,65.26 L 396.13,68.58 L 401.25,75.53 L 403.74,79.04 L 408.34,86.37 L 410.58,90.07 L 414.64,97.75 L 416.61,101.63 L 420.11,109.64 L 421.79,113.69 L 424.71,122.01 L 428.39,134.82 L 428.87,136.75 L 429.71,140.38 L 430.10,142.17 L 430.79,145.59 L 431.44,148.97 L 432.33,155.52 L 432.72,158.83 L 433.16,165.78 L 433.25,167.58 L 433.35,171.38 L 433.42,177.50 L 433.42,180.51 L 433.24,186.43 L 433.11,189.38 L 432.68,195.16 L 432.44,198.04 L 431.76,203.69 L 431.38,206.50 L 430.44,212.04 L 429.94,214.79 L 428.74,220.22 L 428.11,222.92 L 426.65,228.24 L 425.89,230.89 L 424.16,236.11 L 423.26,238.72 L 421.27,243.86 L 420.24,246.42 L 417.97,251.48 L 416.80,254.00 L 414.25,258.99 L 412.95,261.48 L 410.12,266.41 L 408.68,268.87 L 405.57,273.74 L 403.98,276.18 L 400.59,281.01 L 398.86,283.42 L 395.17,288.21 L 393.30,290.61 L 389.32,295.37 L 383.03,302.50 L 381.26,304.43 L 377.97,308.18 L 376.37,310.04 L 373.40,313.68 L 371.96,315.49 L 369.29,319.04 L 367.99,320.81 L 365.60,324.31 L 363.27,327.80 L 359.36,334.75 L 354.43,345.39 L 351.81,351.93 L 357.76,357.43 L 358.78,358.38 L 360.59,360.27 L 361.45,361.21 L 362.96,363.12 L 363.69,364.09 L 364.95,366.08 L 366.60,369.22 L 367.25,370.64 L 368.16,372.90 L 368.55,374.00 L 369.03,376.18 L 369.23,377.33 L 369.41,380.18 L 369.45,380.96 L 369.48,382.79 L 369.50,386.00 L 369.50,387.20 L 369.48,389.24 L 369.47,390.21 L 369.41,391.85 L 369.38,392.63 L 369.28,393.98 L 369.21,394.62 L 369.04,395.76 L 368.84,396.86 L 368.16,398.85 L 366.58,402.26 L 366.18,403.05 L 365.06,404.87 L 364.47,405.80 L 363.08,407.72 L 362.38,408.67 L 360.90,410.46 L 358.77,412.76 L 353.87,417.50 L 354.47,423.14 L 354.66,424.92 L 354.52,429.02 L 354.36,431.13 L 353.61,435.49 L 353.17,437.66 L 351.91,441.78 L 349.57,447.13 L 348.74,448.61 L 346.39,451.68 L 345.13,453.21 L 342.18,456.14 L 340.66,457.56 L 337.42,460.05 L 332.59,462.96 L 331.92,463.29 L 330.07,463.96 L 329.09,464.30 L 326.83,464.94 L 319.86,466.38 L 312.02,467.43 L 309.92,473.73 L 309.18,475.97 L 307.19,480.29 L 306.11,482.42 L 303.52,486.47 L 302.15,488.45 L 299.02,492.17 L 297.39,493.98 L 293.80,497.31 L 291.95,498.92 L 287.96,501.80 L 285.92,503.18 L 281.61,505.54 L 279.42,506.65 L 274.85,508.44 L 267.79,510.41 L 265.46,510.89 L 261.36,511.49 L 259.37,511.73 L 255.61,511.84 L 253.74,511.83 L 249.88,511.45 L 247.90,511.20 M 267.72,478.34 L 268.44,478.00 L 270.04,477.06 L 270.84,476.55 L 272.47,475.37 L 273.27,474.77 L 274.73,473.51 L 276.54,471.69 L 280.12,467.50 L 268.06,467.22 L 266.40,467.18 L 262.43,467.13 L 260.38,467.11 L 256.01,467.10 L 253.83,467.10 L 249.60,467.13 L 243.98,467.22 L 231.96,467.50 L 235.05,471.25 L 235.77,472.12 L 237.38,473.71 L 238.21,474.48 L 240.02,475.87 L 240.95,476.55 L 242.93,477.72 L 243.93,478.28 L 246.02,479.23 L 247.08,479.67 L 249.24,480.36 L 250.33,480.67 L 252.52,481.09 L 253.62,481.26 L 255.80,481.39 L 259.00,481.24 L 259.48,481.18 L 260.77,480.88 L 261.45,480.70 L 263.01,480.21 L 264.59,479.69 M 321.69,433.83 L 322.50,433.06 L 323.46,431.26 L 323.64,430.78 L 323.87,429.69 L 324.00,427.83 L 324.00,424.00 L 256.00,424.00 L 188.00,424.00 L 188.00,427.69 L 188.00,428.89 L 188.55,431.02 L 190.17,433.69 L 192.35,436.00 L 255.86,436.00 L 319.37,436.00 L 321.69,433.83 M 337.93,390.37 L 338.46,389.69 L 339.20,388.41 L 339.52,387.77 L 339.86,386.52 L 339.98,385.89 L 339.92,384.61 L 339.39,382.58 L 339.32,382.40 L 338.71,382.10 L 338.50,382.03 L 337.88,381.91 L 337.54,381.84 L 336.62,381.73 L 336.11,381.68 L 334.83,381.58 L 334.13,381.54 L 332.43,381.46 L 331.52,381.42 L 329.33,381.35 L 328.17,381.31 L 325.45,381.26 L 324.02,381.23 L 320.71,381.18 L 318.97,381.16 L 315.01,381.12 L 312.94,381.11 L 308.27,381.08 L 305.85,381.07 L 300.41,381.05 L 297.59,381.04 L 291.34,381.02 L 288.10,381.02 L 280.97,381.01 L 277.29,381.01 L 269.22,381.00 L 256.00,381.00 L 251.34,381.00 L 242.78,381.00 L 238.62,381.00 L 231.03,381.01 L 227.35,381.01 L 220.66,381.02 L 217.43,381.03 L 211.59,381.05 L 208.77,381.06 L 203.73,381.08 L 201.30,381.09 L 196.99,381.12 L 194.92,381.14 L 191.29,381.18 L 189.56,381.21 L 186.55,381.26 L 185.11,381.28 L 182.67,381.35 L 181.51,381.38 L 179.57,381.46 L 178.66,381.49 L 177.17,381.58 L 176.48,381.63 L 175.38,381.73 L 174.88,381.79 L 174.12,381.91 L 173.77,381.97 L 173.29,382.10 L 172.61,382.58 L 172.34,383.29 L 172.08,384.61 L 172.00,385.26 L 172.14,386.52 L 172.26,387.15 L 172.80,388.41 L 174.07,390.37 L 176.15,393.00 L 256.00,393.00 L 335.85,393.00 L 337.93,390.37 M 209.00,305.00 L 209.00,260.00 L 201.68,260.00 L 200.13,260.00 L 197.11,259.78 L 195.62,259.64 L 192.72,259.15 L 191.28,258.87 L 188.51,258.12 L 187.15,257.71 L 184.52,256.71 L 183.23,256.18 L 180.76,254.94 L 179.55,254.30 L 177.26,252.84 L 176.13,252.08 L 174.02,250.41 L 172.99,249.55 L 171.07,247.69 L 170.14,246.73 L 168.44,244.68 L 167.61,243.64 L 166.12,241.42 L 165.41,240.29 L 164.16,237.91 L 163.57,236.71 L 162.56,234.19 L 162.09,232.91 L 161.35,230.26 L 161.01,228.92 L 160.54,226.15 L 160.34,224.75 L 160.16,221.88 L 160.22,217.47 L 160.32,215.98 L 160.75,213.09 L 161.00,211.66 L 161.74,208.89 L 162.14,207.52 L 163.17,204.89 L 163.71,203.59 L 165.00,201.11 L 165.67,199.89 L 167.20,197.57 L 167.99,196.43 L 169.75,194.30 L 170.65,193.26 L 172.61,191.32 L 173.61,190.38 L 175.76,188.66 L 176.85,187.83 L 179.16,186.33 L 180.33,185.61 L 182.78,184.36 L 184.02,183.77 L 186.60,182.77 L 187.90,182.31 L 190.59,181.59 L 191.94,181.27 L 194.71,180.84 L 196.10,180.66 L 198.93,180.53 L 200.35,180.51 L 203.23,180.70 L 207.57,181.36 L 210.08,181.89 L 214.72,183.50 L 216.97,184.39 L 221.08,186.70 L 223.07,187.93 L 226.62,190.88 L 228.32,192.44 L 231.27,195.99 L 232.67,197.84 L 234.98,201.95 L 236.06,204.07 L 237.71,208.70 L 238.45,211.07 L 239.39,216.15 L 239.98,224.25 L 240.00,230.00 L 256.00,230.00 L 272.00,230.00 L 272.02,224.25 L 272.03,221.45 L 272.61,216.15 L 272.99,213.56 L 274.29,208.70 L 275.03,206.33 L 277.02,201.95 L 278.09,199.83 L 280.73,195.99 L 282.13,194.14 L 285.38,190.88 L 287.08,189.33 L 290.92,186.70 L 292.90,185.46 L 297.28,183.50 L 304.43,181.36 L 305.88,181.05 L 308.77,180.70 L 310.21,180.56 L 313.07,180.53 L 314.49,180.55 L 317.29,180.84 L 318.69,181.01 L 321.41,181.59 L 322.77,181.92 L 325.40,182.77 L 326.70,183.24 L 329.22,184.36 L 330.46,184.96 L 332.84,186.33 L 334.02,187.05 L 336.24,188.66 L 337.34,189.49 L 339.39,191.32 L 340.39,192.27 L 342.25,194.30 L 343.16,195.34 L 344.80,197.57 L 345.59,198.71 L 347.00,201.11 L 347.68,202.33 L 348.83,204.89 L 349.38,206.18 L 350.26,208.89 L 350.66,210.26 L 351.25,213.09 L 351.78,217.47 L 351.88,218.96 L 351.84,221.88 L 351.78,223.33 L 351.46,226.15 L 351.26,227.55 L 350.65,230.26 L 350.31,231.60 L 349.44,234.19 L 348.97,235.46 L 347.84,237.91 L 347.24,239.12 L 345.88,241.42 L 345.16,242.55 L 343.56,244.68 L 342.74,245.73 L 340.93,247.69 L 339.99,248.64 L 337.98,250.41 L 336.95,251.27 L 334.74,252.84 L 333.62,253.59 L 331.24,254.94 L 330.02,255.59 L 327.48,256.71 L 326.19,257.24 L 323.49,258.12 L 322.12,258.53 L 319.28,259.15 L 317.85,259.43 L 314.89,259.78 L 310.32,260.00 L 303.00,260.00 L 303.00,305.00 L 303.00,350.00 L 311.75,350.00 L 320.50,350.00 L 323.34,341.75 L 324.34,338.84 L 326.77,332.81 L 328.05,329.78 L 330.96,323.70 L 332.46,320.68 L 335.71,314.80 L 340.83,306.50 L 342.28,304.32 L 345.00,300.48 L 345.71,299.52 L 347.20,297.56 L 347.98,296.56 L 349.70,294.43 L 350.60,293.33 L 352.67,290.88 L 353.75,289.61 L 356.26,286.71 L 357.59,285.20 L 360.66,281.72 L 366.03,275.69 L 368.45,272.98 L 372.95,267.36 L 375.15,264.52 L 379.20,258.64 L 381.17,255.66 L 384.76,249.53 L 386.50,246.44 L 389.63,240.07 L 391.13,236.86 L 393.79,230.27 L 395.06,226.95 L 397.24,220.15 L 398.27,216.72 L 399.97,209.72 L 401.97,199.00 L 402.17,197.67 L 402.48,194.51 L 402.63,192.86 L 402.83,189.20 L 402.92,187.33 L 403.02,183.34 L 403.05,181.33 L 403.04,177.19 L 403.00,173.06 L 402.61,165.09 L 402.48,163.18 L 402.15,159.66 L 401.55,155.00 L 400.87,150.76 L 398.98,142.48 L 397.95,138.38 L 395.40,130.40 L 394.05,126.45 L 390.88,118.80 L 389.22,115.02 L 385.45,107.72 L 383.49,104.12 L 379.16,97.20 L 376.92,93.79 L 372.06,87.29 L 369.56,84.09 L 364.19,78.03 L 361.45,75.06 L 355.61,69.47 L 352.64,66.73 L 346.36,61.64 L 343.17,59.16 L 336.49,54.59 L 333.10,52.38 L 326.03,48.37 L 322.46,46.43 L 315.05,43.01 L 311.31,41.37 L 303.59,38.56 L 299.70,37.24 L 291.69,35.07 L 287.66,34.07 L 279.41,32.57 L 266.78,31.11 L 262.00,30.77 L 252.55,30.76 L 247.85,30.87 L 238.60,31.74 L 234.01,32.28 L 225.00,33.99 L 220.53,34.95 L 211.81,37.47 L 207.49,38.82 L 199.10,42.11 L 194.95,43.85 L 186.94,47.87 L 182.99,49.97 L 175.40,54.69 L 171.66,57.14 L 164.54,62.52 L 161.04,65.29 L 154.43,71.31 L 151.20,74.39 L 145.15,80.99 L 142.19,84.36 L 136.75,91.52 L 134.10,95.17 L 129.30,102.85 L 126.99,106.75 L 122.88,114.91 L 120.92,119.05 L 117.56,127.66 L 115.97,132.02 L 113.39,141.04 L 110.45,155.00 L 110.03,157.58 L 109.45,163.07 L 109.20,165.86 L 108.95,171.66 L 108.87,174.59 L 108.94,180.58 L 109.01,183.58 L 109.40,189.62 L 109.63,192.63 L 110.31,198.58 L 110.69,201.53 L 111.66,207.26 L 112.19,210.09 L 113.44,215.46 L 115.63,222.99 L 116.60,225.89 L 118.62,231.32 L 119.65,233.99 L 121.84,239.04 L 122.96,241.53 L 125.37,246.32 L 126.62,248.69 L 129.34,253.32 L 130.75,255.63 L 133.84,260.23 L 135.45,262.53 L 138.99,267.21 L 140.82,269.57 L 144.88,274.44 L 151.62,282.09 L 153.08,283.69 L 156.24,287.31 L 157.83,289.15 L 160.97,292.92 L 162.51,294.78 L 165.27,298.25 L 165.92,299.07 L 167.09,300.59 L 168.58,302.61 L 169.50,303.89 L 171.38,306.73 L 172.33,308.19 L 174.24,311.34 L 176.14,314.55 L 179.85,321.51 L 181.65,325.01 L 184.85,332.01 L 185.60,333.72 L 186.95,337.04 L 188.69,341.75 L 191.50,350.00 L 200.25,350.00 L 209.00,350.00 L 209.00,305.00 M 272.00,305.00 L 272.00,260.00 L 256.00,260.00 L 240.00,260.00 L 240.00,305.00 L 240.00,350.00 L 256.00,350.00 L 272.00,350.00 L 272.00,305.00 M 209.00,223.14 L 209.00,222.38 L 208.98,221.08 L 208.97,220.46 L 208.92,219.41 L 208.85,218.42 L 208.56,216.98 L 208.37,216.32 L 207.76,215.25 L 206.36,213.64 L 205.78,213.05 L 204.49,212.17 L 203.83,211.78 L 202.43,211.26 L 201.72,211.04 L 200.27,210.88 L 199.55,210.84 L 198.12,211.01 L 197.42,211.14 L 196.07,211.64 L 195.42,211.93 L 194.22,212.75 L 193.65,213.19 L 192.67,214.32 L 191.51,216.33 L 191.09,217.32 L 190.70,219.27 L 190.58,220.24 L 190.76,222.09 L 190.92,222.99 L 191.65,224.65 L 193.35,226.82 L 193.99,227.41 L 195.24,228.27 L 195.88,228.65 L 197.37,229.17 L 198.18,229.40 L 200.22,229.67 L 204.25,229.88 L 209.00,230.00 L 209.00,223.14 M 318.47,227.03 L 319.21,226.33 L 320.27,224.75 L 320.74,223.93 L 321.23,222.14 L 321.40,221.23 L 321.30,219.31 L 320.49,216.33 L 320.18,215.59 L 319.33,214.32 L 318.87,213.72 L 317.78,212.75 L 317.21,212.30 L 315.93,211.64 L 315.27,211.35 L 313.88,211.01 L 313.17,210.88 L 311.73,210.88 L 311.00,210.92 L 309.57,211.26 L 308.86,211.47 L 307.51,212.17 L 305.64,213.64 L 305.05,214.22 L 304.23,215.26 L 303.88,215.78 L 303.44,217.00 L 303.26,217.67 L 303.08,219.47 L 303.05,219.98 L 303.02,221.17 L 303.00,223.27 L 303.00,230.27 L 309.57,229.75 L 310.79,229.65 L 312.78,229.39 L 313.71,229.24 L 315.20,228.85 L 315.90,228.64 L 317.03,228.09 L 317.57,227.79 Z" fill="rgba(0,0,0,1)"/>
</g>
</svg>